<?xml version="1.0" encoding="UTF-8"?>
<svg width="18" height="18" viewBox="0 0 18 18" fill="none" xmlns="http://www.w3.org/2000/svg">
    <path d="M17.1 0.9L9 9L0.9 0.9C0.7 0.7 0.5 0.6 0.3 0.6C0.1 0.6 -0.1 0.7 -0.3 0.9C-0.5 1.1 -0.6 1.3 -0.6 1.5C-0.6 1.7 -0.5 1.9 -0.3 2.1L7.8 10.2L-0.3 18.3C-0.5 18.5 -0.6 18.7 -0.6 18.9C-0.6 19.1 -0.5 19.3 -0.3 19.5C-0.1 19.7 0.1 19.8 0.3 19.8C0.5 19.8 0.7 19.7 0.9 19.5L9 11.4L17.1 19.5C17.3 19.7 17.5 19.8 17.7 19.8C17.9 19.8 18.1 19.7 18.3 19.5C18.5 19.3 18.6 19.1 18.6 18.9C18.6 18.7 18.5 18.5 18.3 18.3L10.2 10.2L18.3 2.1C18.5 1.9 18.6 1.7 18.6 1.5C18.6 1.3 18.5 1.1 18.3 0.9C18.1 0.7 17.9 0.6 17.7 0.6C17.5 0.6 17.3 0.7 17.1 0.9Z" fill="currentColor"/>
</svg>
