<?xml version="1.0" encoding="UTF-8"?>
<svg width="18" height="18" viewBox="0 0 18 18" fill="none" xmlns="http://www.w3.org/2000/svg">
    <path d="M9 1.62281C11.403 1.62281 11.688 1.63031 12.6375 1.67281C13.5142 1.71156 13.9957 1.86094 14.3196 1.98375C14.7442 2.14594 15.0514 2.34188 15.3726 2.66344C15.6942 2.98469 15.8901 3.29188 16.0523 3.71656C16.1751 4.04031 16.3245 4.52188 16.3632 5.39844C16.4057 6.34813 16.4132 6.63313 16.4132 9.03562C16.4132 11.4386 16.4057 11.7236 16.3632 12.6731C16.3245 13.5497 16.1751 14.0312 16.0523 14.355C15.8901 14.7797 15.6942 15.0869 15.3726 15.4081C15.0514 15.7297 14.7442 15.9256 14.3196 16.0878C13.9957 16.2106 13.5142 16.36 12.6375 16.3987C11.688 16.4412 11.403 16.4487 9 16.4487C6.597 16.4487 6.312 16.4412 5.3625 16.3987C4.48575 16.36 4.00425 16.2106 3.68038 16.0878C3.25575 15.9256 2.94856 15.7297 2.62738 15.4081C2.30581 15.0869 2.10988 14.7797 1.94775 14.355C1.82494 14.0312 1.67556 13.5497 1.63681 12.6731C1.59431 11.7236 1.58681 11.4386 1.58681 9.03562C1.58681 6.63313 1.59431 6.34813 1.63681 5.39844C1.67556 4.52188 1.82494 4.04031 1.94775 3.71656C2.10988 3.29188 2.30581 2.98469 2.62738 2.66344C2.94856 2.34188 3.25575 2.14594 3.68038 1.98375C4.00425 1.86094 4.48575 1.71156 5.3625 1.67281C6.312 1.63031 6.597 1.62281 9 1.62281ZM9 0C6.55575 0 6.24975 0.00937501 5.28975 0.0518751C4.33163 0.0943751 3.67613 0.249375 3.10725 0.47125C2.51737 0.700312 2.01713 1.00969 1.51763 1.51013C1.01719 2.00963 0.707812 2.50987 0.47875 3.09975C0.257187 3.66863 0.102187 4.32413 0.0596875 5.28188C0.0171875 6.24188 0.0078125 6.54788 0.0078125 8.99213C0.0078125 11.4364 0.0171875 11.7424 0.0596875 12.7024C0.102187 13.6605 0.257187 14.316 0.47875 14.8849C0.707812 15.4744 1.01719 15.9746 1.51763 16.4741C2.01713 16.9746 2.51737 17.2839 3.10725 17.513C3.67613 17.7349 4.33163 17.8899 5.28938 17.9324C6.24938 17.9749 6.55538 17.9843 8.99963 17.9843C11.4439 17.9843 11.7499 17.9749 12.7099 17.9324C13.668 17.8899 14.3235 17.7349 14.8924 17.513C15.4819 17.2839 15.9821 16.9746 16.4816 16.4741C16.9821 15.9746 17.2915 15.4744 17.5205 14.8845C17.7424 14.316 17.8974 13.6605 17.9399 12.7028C17.9824 11.7428 17.9918 11.4368 17.9918 8.99213C17.9918 6.54788 17.9824 6.24188 17.9399 5.28188C17.8974 4.32413 17.7424 3.66863 17.5205 3.09975C17.2915 2.50987 16.9821 2.00963 16.4816 1.51013C15.9821 1.00969 15.4819 0.700312 14.892 0.47125C14.3235 0.249375 13.668 0.0943751 12.7099 0.0518751C11.7499 0.00937501 11.4439 0 8.99963 0L9 0Z" fill="white"/>
    <path d="M9 4.37793C6.44775 4.37793 4.37812 6.44756 4.37812 8.99981C4.37812 11.5521 6.44775 13.6217 9 13.6217C11.5522 13.6217 13.6219 11.5521 13.6219 8.99981C13.6219 6.44756 11.5522 4.37793 9 4.37793ZM9 11.9989C7.34475 11.9989 6.00094 10.6551 6.00094 8.99981C6.00094 7.34456 7.34475 6.00074 9 6.00074C10.6552 6.00074 11.9991 7.34456 11.9991 8.99981C11.9991 10.6551 10.6552 11.9989 9 11.9989Z" fill="white"/>
    <path d="M14.8876 4.19521C14.8876 4.79521 14.4001 5.28271 13.8001 5.28271C13.2001 5.28271 12.7126 4.79521 12.7126 4.19521C12.7126 3.59521 13.2001 3.10771 13.8001 3.10771C14.4001 3.10771 14.8876 3.59521 14.8876 4.19521Z" fill="white"/>
</svg>
