<?xml version="1.0" encoding="UTF-8"?>
<svg width="18" height="18" viewBox="0 0 18 18" fill="none" xmlns="http://www.w3.org/2000/svg">
    <path d="M9 0C4.032 0 0 4.032 0 9C0 13.968 4.032 18 9 18C13.968 18 18 13.968 18 9C18 4.032 13.968 0 9 0ZM14.85 5.4H12.24C11.952 4.212 11.52 3.096 10.962 2.088C12.498 2.682 13.806 3.852 14.85 5.4ZM9 1.8C9.774 2.898 10.386 4.104 10.782 5.4H7.218C7.614 4.104 8.226 2.898 9 1.8ZM2.016 10.8C1.872 10.224 1.8 9.63 1.8 9C1.8 8.37 1.872 7.776 2.016 7.2H5.058C4.986 7.794 4.932 8.388 4.932 9C4.932 9.612 4.986 10.206 5.058 10.8H2.016ZM3.15 12.6H5.76C6.048 13.788 6.48 14.904 7.038 15.912C5.502 15.318 4.194 14.148 3.15 12.6ZM5.76 5.4H3.15C4.194 3.852 5.502 2.682 7.038 2.088C6.48 3.096 6.048 4.212 5.76 5.4ZM9 16.2C8.226 15.102 7.614 13.896 7.218 12.6H10.782C10.386 13.896 9.774 15.102 9 16.2ZM11.16 10.8H6.84C6.75 10.206 6.696 9.612 6.696 9C6.696 8.388 6.75 7.785 6.84 7.2H11.16C11.25 7.785 11.304 8.388 11.304 9C11.304 9.612 11.25 10.206 11.16 10.8ZM10.962 15.912C11.52 14.904 11.952 13.788 12.24 12.6H14.85C13.806 14.148 12.498 15.318 10.962 15.912ZM12.942 10.8C13.014 10.206 13.068 9.612 13.068 9C13.068 8.388 13.014 7.794 12.942 7.2H15.984C16.128 7.776 16.2 8.37 16.2 9C16.2 9.63 16.128 10.224 15.984 10.8H12.942Z" fill="currentColor"/>
</svg>
