<?xml version="1.0" encoding="UTF-8"?>
<svg width="18" height="18" viewBox="0 0 18 18" fill="none" xmlns="http://www.w3.org/2000/svg">
    <path d="M16.7143 0H1.28571C0.575893 0 0 0.575893 0 1.28571V16.7143C0 17.4241 0.575893 18 1.28571 18H16.7143C17.4241 18 18 17.4241 18 16.7143V1.28571C18 0.575893 17.4241 0 16.7143 0ZM5.48036 15.4286H2.81786V6.94821H5.48036V15.4286ZM4.14911 5.76696C3.27589 5.76696 2.57143 5.0625 2.57143 4.19196C2.57143 3.32143 3.27589 2.61696 4.14911 2.61696C5.01964 2.61696 5.72411 3.32143 5.72411 4.19196C5.72411 5.0625 5.01964 5.76696 4.14911 5.76696ZM15.4286 15.4286H12.7714V11.25C12.7714 10.2589 12.7527 8.98661 11.3946 8.98661C10.0179 8.98661 9.80357 10.0607 9.80357 11.1723V15.4286H7.15179V6.94821H9.69643V8.13214H9.73393C10.0982 7.44643 10.9821 6.72321 12.2786 6.72321C14.9732 6.72321 15.4286 8.47768 15.4286 10.7411V15.4286Z" fill="white"/>
</svg>
