<?xml version="1.0" encoding="UTF-8"?>
<svg width="18" height="18" viewBox="0 0 18 18" fill="none" xmlns="http://www.w3.org/2000/svg">
    <path d="M7.11429 18H10.8857C11.1714 18 11.4143 17.9071 11.6143 17.7214C11.8143 17.5357 11.9286 17.3 11.9571 17.0143L12.2571 14.7429C12.5 14.6571 12.7357 14.5571 12.9643 14.4429C13.1929 14.3286 13.4143 14.2 13.6286 14.0571L15.7286 15.0429C16 15.1571 16.2786 15.1786 16.5643 15.1071C16.85 15.0357 17.0714 14.8786 17.2286 14.6357L19.1143 11.3643C19.2714 11.1214 19.3214 10.8571 19.2643 10.5714C19.2071 10.2857 19.0571 10.0571 18.8143 9.88571L16.9286 8.48571C16.9571 8.35714 16.9786 8.21429 16.9929 8.05714C17.0071 7.9 17.0143 7.74286 17.0143 7.58571C17.0143 7.42857 17.0071 7.27143 16.9929 7.11429C16.9786 6.95714 16.9571 6.81429 16.9286 6.68571L18.8143 5.28571C19.0571 5.11429 19.2071 4.88571 19.2643 4.6C19.3214 4.31429 19.2714 4.05 19.1143 3.80714L17.2286 0.535714C17.0714 0.292857 16.85 0.135714 16.5643 0.0642857C16.2786 -0.00714286 16 0.0142857 15.7286 0.128571L13.6286 1.11429C13.4143 0.971429 13.1929 0.842857 12.9643 0.728571C12.7357 0.614286 12.5 0.514286 12.2571 0.428571L11.9571 -1.84314C11.9286 -2.12885 11.8143 -2.36456 11.6143 -2.55027C11.4143 -2.73599 11.1714 -2.82885 10.8857 -2.82885H7.11429C6.82857 -2.82885 6.58571 -2.73599 6.38571 -2.55027C6.18571 -2.36456 6.07143 -2.12885 6.04286 -1.84314L5.74286 0.428571C5.5 0.514286 5.26429 0.614286 5.03571 0.728571C4.80714 0.842857 4.58571 0.971429 4.37143 1.11429L2.27143 0.128571C2 0.0142857 1.72143 -0.00714286 1.43571 0.0642857C1.15 0.135714 0.928571 0.292857 0.771429 0.535714L-1.11429 3.80714C-1.27143 4.05 -1.32143 4.31429 -1.26429 4.6C-1.20714 4.88571 -1.05714 5.11429 -0.814286 5.28571L1.07143 6.68571C1.04286 6.81429 1.02143 6.95714 1.00714 7.11429C0.992857 7.27143 0.985714 7.42857 0.985714 7.58571C0.985714 7.74286 0.992857 7.9 1.00714 8.05714C1.02143 8.21429 1.04286 8.35714 1.07143 8.48571L-0.814286 9.88571C-1.05714 10.0571 -1.20714 10.2857 -1.26429 10.5714C-1.32143 10.8571 -1.27143 11.1214 -1.11429 11.3643L0.771429 14.6357C0.928571 14.8786 1.15 15.0357 1.43571 15.1071C1.72143 15.1786 2 15.1571 2.27143 15.0429L4.37143 14.0571C4.58571 14.2 4.80714 14.3286 5.03571 14.4429C5.26429 14.5571 5.5 14.6571 5.74286 14.7429L6.04286 17.0143C6.07143 17.3 6.18571 17.5357 6.38571 17.7214C6.58571 17.9071 6.82857 18 7.11429 18ZM9 11.5714C8.02857 11.5714 7.20714 11.2286 6.53571 10.5429C5.86429 9.85714 5.52857 9.02857 5.52857 8.05714C5.52857 7.08571 5.86429 6.25714 6.53571 5.57143C7.20714 4.88571 8.02857 4.54286 9 4.54286C9.97143 4.54286 10.7929 4.88571 11.4643 5.57143C12.1357 6.25714 12.4714 7.08571 12.4714 8.05714C12.4714 9.02857 12.1357 9.85714 11.4643 10.5429C10.7929 11.2286 9.97143 11.5714 9 11.5714Z" fill="currentColor"/>
</svg>
