<?xml version="1.0" encoding="UTF-8"?>
<svg width="18" height="18" viewBox="0 0 18 18" fill="none" xmlns="http://www.w3.org/2000/svg">
    <path d="M5.66262 16.5C12.4534 16.5 16.1687 10.9973 16.1687 6.22873C16.1687 6.07499 16.1652 5.91873 16.1582 5.76499C16.8809 5.23581 17.5046 4.58047 18 3.82499C17.3269 4.12533 16.6122 4.32288 15.8804 4.41373C16.651 3.93175 17.2279 3.17076 17.5043 2.27624C16.7849 2.72251 15.9959 3.0332 15.1739 3.19624C14.4079 2.44125 13.3322 1.98749 12.1539 1.98749C10.1788 1.98749 8.57127 3.59502 8.57127 5.56764C8.57127 5.86548 8.60502 6.15581 8.67002 6.43498C5.66977 6.28124 3.00977 4.84673 1.23002 2.66873C0.921268 3.23376 0.745768 3.87749 0.745768 4.56249C0.745768 5.85498 1.40627 7.00125 2.39252 7.67624C1.79377 7.65749 1.22627 7.48624 0.726268 7.20374C0.726268 7.21874 0.726268 7.23624 0.726268 7.25374C0.726268 9.00374 1.95752 10.4608 3.59252 10.8097C3.29502 10.8937 2.97752 10.9382 2.64877 10.9382C2.41877 10.9382 2.19377 10.9157 1.97627 10.8727C2.43377 12.3045 3.76502 13.3522 5.35877 13.3837C4.12502 14.3472 2.56502 14.9265 0.871268 14.9265C0.578768 14.9265 0.289268 14.9097 0 14.8762C1.61502 15.9015 3.52877 16.5 5.58752 16.5" fill="white"/>
</svg>
