<?xml version="1.0" encoding="UTF-8"?>
<svg width="18" height="18" viewBox="0 0 18 18" fill="none" xmlns="http://www.w3.org/2000/svg">
    <path d="M9 9C10.1935 9 11.2381 8.57857 12.0952 7.73571C12.9524 6.89286 13.381 5.85714 13.381 4.62857C13.381 3.4 12.9524 2.36429 12.0952 1.52143C11.2381 0.678571 10.1935 0.257143 9 0.257143C7.80649 0.257143 6.76191 0.678571 5.90476 1.52143C5.04762 2.36429 4.61905 3.4 4.61905 4.62857C4.61905 5.85714 5.04762 6.89286 5.90476 7.73571C6.76191 8.57857 7.80649 9 9 9ZM2.57143 17.7429H15.4286C15.8095 17.7429 16.1327 17.6095 16.3981 17.3429C16.6635 17.0762 16.7952 16.7514 16.7952 16.3686V14.7943C16.7952 14.1771 16.631 13.6114 16.3024 13.0971C15.9738 12.5829 15.5429 12.1657 15.0095 11.8457C13.9429 11.2057 12.869 10.7314 11.7881 10.4229C10.7071 10.1143 9.85714 9.96 9 9.96C8.14286 9.96 7.29286 10.1143 6.21191 10.4229C5.13095 10.7314 4.05714 11.2057 2.99048 11.8457C2.45714 12.1657 2.02619 12.5829 1.69762 13.0971C1.36905 13.6114 1.20476 14.1771 1.20476 14.7943V16.3686C1.20476 16.7514 1.33651 17.0762 1.60191 17.3429C1.86731 17.6095 2.19048 17.7429 2.57143 17.7429Z" fill="currentColor"/>
</svg>
